# xmcd
#
# Track frame offsets:
# 150
# 14757
# 33360
# 49074
# 61845
# 76560
# 91032
# 104694
# 115278
# 133233
# 149514
# 161043
# 179943
# 193443
# 206781
#
# Disc length: 3012 seconds
#
#
# Revision: 0
# Processed by: cddbd v1.5.2PL0 Copyright (c) Steve Scherf et al.
# Submitted via: FreeRIP 2.942 
#
DISCID=e30bc20f
DTITLE=Tião Carreiro e Pardinho - Abrindo caminho
DYEAR=1971
DGENRE=Country
TTITLE0=Abrindo Caminho
TTITLE1=Não posso esquecer-te
TTITLE2=Faca que não corta
TTITLE3=O segredo da chave
TTITLE4=Cavalo que pula
TTITLE5=Um pouco de minha vida
TTITLE6=Meu amor tem outro dono
TTITLE7=Falou e disse
TTITLE8=Pescador do Ivai
TTITLE9=Carro velho
TTITLE10=Bom Jesus de Iguape
TTITLE11=Filho da liberdade
TTITLE12=Viúva rica
TTITLE13=Nó cego
TTITLE14=Hoje eu não posso ir
EXTD=
EXTT0=
EXTT1=
EXTT2=
EXTT3=
EXTT4=
EXTT5=
EXTT6=
EXTT7=
EXTT8=
EXTT9=
EXTT10=
EXTT11=
EXTT12=
EXTT13=
EXTT14=
PLAYORDER=
